<svg width="28" height="20" viewBox="0 0 28 20" fill="none" xmlns="http://www.w3.org/2000/svg">
<path fill-rule="evenodd" clip-rule="evenodd" d="M13.8748 0C10.6042 0 7.79114 1.95248 6.53469 4.75229C6.41422 5.02074 6.329 5.21052 6.26336 5.3486C6.19821 5.48566 6.17111 5.5306 6.1677 5.53627L6.16768 5.53629C6.16736 5.53682 6.16726 5.537 6.16736 5.53685C6.06672 5.67772 6.01503 5.71854 5.98692 5.73673C5.95882 5.75492 5.90042 5.78537 5.7307 5.81951C5.6815 5.82941 5.57671 5.83343 5.125 5.83343C2.29454 5.83343 0 8.12797 0 10.9584C0 13.7889 2.29454 16.0834 5.125 16.0834H16.2139L16.8567 14.5834H5.125C3.12297 14.5834 1.5 12.9605 1.5 10.9584C1.5 8.95639 3.12297 7.33343 5.125 7.33343L5.20397 7.33347C5.53232 7.33374 5.80824 7.33396 6.02652 7.29005C6.29156 7.23674 6.55377 7.15664 6.80203 6.99593C7.0503 6.83523 7.23072 6.6288 7.38788 6.40882C7.47347 6.28902 7.5495 6.13687 7.61807 5.99263C7.69165 5.83785 7.7836 5.63295 7.89918 5.37541L7.89921 5.37534L7.9032 5.36643C8.92661 3.08591 11.2163 1.5 13.8748 1.5C16.5332 1.5 18.8228 3.08577 19.8463 5.36613L19.8504 5.37531C19.966 5.63292 20.058 5.8379 20.1317 5.99273C20.2003 6.13708 20.2764 6.28934 20.3621 6.40922C20.5192 6.62904 20.6996 6.83533 20.9477 6.99595C21.1958 7.15657 21.4579 7.23665 21.7228 7.28998C21.9412 7.33396 22.2174 7.33374 22.546 7.33347L22.625 7.33343C24.627 7.33343 26.25 8.95639 26.25 10.9584C26.25 12.9605 24.627 14.5834 22.625 14.5834H22.5603L23.19 16.0526C25.7546 15.7714 27.75 13.5979 27.75 10.9584C27.75 8.12797 25.4555 5.83343 22.625 5.83343C22.173 5.83343 22.0681 5.8294 22.0189 5.81949C21.8492 5.78533 21.7908 5.7549 21.7628 5.73672C21.7347 5.71855 21.683 5.67777 21.5824 5.53698C21.5825 5.53713 21.5824 5.53695 21.5821 5.5364L21.5821 5.53638C21.5786 5.53065 21.5515 5.48564 21.4863 5.34861C21.4206 5.21045 21.3353 5.02054 21.2148 4.75192C19.9582 1.95231 17.1453 0 13.8748 0Z" fill="#33A3AA"/>
<path d="M18.5936 18.4166V17.7703L20.1037 16.3721C20.2322 16.2478 20.3399 16.1359 20.4269 16.0365C20.5153 15.937 20.5823 15.8397 20.6278 15.7444C20.6734 15.6477 20.6962 15.5435 20.6962 15.4316C20.6962 15.3073 20.6679 15.2003 20.6113 15.1105C20.5546 15.0194 20.4773 14.9496 20.3793 14.9013C20.2812 14.8516 20.17 14.8267 20.0457 14.8267C19.9159 14.8267 19.8027 14.853 19.706 14.9054C19.6093 14.9579 19.5348 15.0332 19.4823 15.1312C19.4298 15.2293 19.4036 15.346 19.4036 15.4813H18.5522C18.5522 15.2037 18.615 14.9628 18.7407 14.7584C18.8664 14.554 19.0424 14.3959 19.2689 14.284C19.4954 14.1721 19.7564 14.1162 20.052 14.1162C20.3558 14.1162 20.6202 14.1701 20.8453 14.2778C21.0718 14.3841 21.2479 14.5319 21.3736 14.7211C21.4992 14.9103 21.5621 15.1271 21.5621 15.3715C21.5621 15.5317 21.5303 15.6898 21.4668 15.8459C21.4046 16.002 21.2935 16.1753 21.1333 16.3658C20.9731 16.555 20.7473 16.7822 20.4559 17.0474L19.8365 17.6543V17.6833H21.618V18.4166H18.5936Z" fill="#33A3AA"/>
<path d="M13.3091 8.06647H12.2203C12.2004 7.92561 12.1598 7.80049 12.0985 7.69111C12.0372 7.58008 11.9584 7.48562 11.8623 7.40773C11.7662 7.32984 11.6552 7.27018 11.5292 7.22875C11.4049 7.18732 11.2699 7.16661 11.124 7.16661C10.8606 7.16661 10.631 7.23207 10.4355 7.36299C10.2399 7.49225 10.0883 7.68117 9.98058 7.92975C9.87286 8.17667 9.819 8.47662 9.819 8.82961C9.819 9.19253 9.87286 9.49746 9.98058 9.74438C10.09 9.9913 10.2424 10.1777 10.438 10.3037C10.6335 10.4296 10.8597 10.4926 11.1166 10.4926C11.2608 10.4926 11.3942 10.4735 11.5168 10.4354C11.6411 10.3973 11.7513 10.3418 11.8474 10.2689C11.9435 10.1943 12.0231 10.104 12.086 9.99793C12.1507 9.89187 12.1954 9.77089 12.2203 9.635L13.3091 9.63998C13.2809 9.87364 13.2105 10.099 13.0978 10.3161C12.9867 10.5315 12.8368 10.7246 12.6478 10.8953C12.4606 11.0643 12.2369 11.1986 11.9767 11.298C11.7182 11.3958 11.4257 11.4447 11.0992 11.4447C10.6451 11.4447 10.2391 11.3419 9.88115 11.1364C9.52485 10.9309 9.24313 10.6335 9.03598 10.244C8.83049 9.85458 8.72774 9.38311 8.72774 8.82961C8.72774 8.27445 8.83214 7.80214 9.04095 7.4127C9.24976 7.02326 9.53314 6.72662 9.89109 6.52279C10.249 6.3173 10.6517 6.21455 11.0992 6.21455C11.3942 6.21455 11.6676 6.25598 11.9195 6.33884C12.1731 6.4217 12.3976 6.54267 12.5932 6.70177C12.7887 6.8592 12.9478 7.05226 13.0704 7.28096C13.1947 7.50965 13.2743 7.77149 13.3091 8.06647ZM18.7592 8.82961C18.7592 9.38477 18.6539 9.85707 18.4435 10.2465C18.2347 10.636 17.9496 10.9334 17.5884 11.1389C17.2287 11.3427 16.8244 11.4447 16.3753 11.4447C15.9229 11.4447 15.5169 11.3419 15.1572 11.1364C14.7976 10.9309 14.5134 10.6335 14.3046 10.244C14.0958 9.85458 13.9914 9.38311 13.9914 8.82961C13.9914 8.27445 14.0958 7.80214 14.3046 7.4127C14.5134 7.02326 14.7976 6.72662 15.1572 6.52279C15.5169 6.3173 15.9229 6.21455 16.3753 6.21455C16.8244 6.21455 17.2287 6.3173 17.5884 6.52279C17.9496 6.72662 18.2347 7.02326 18.4435 7.4127C18.6539 7.80214 18.7592 8.27445 18.7592 8.82961ZM17.6679 8.82961C17.6679 8.46999 17.614 8.16673 17.5063 7.91981C17.4003 7.67288 17.2503 7.48562 17.0564 7.35802C16.8625 7.23041 16.6355 7.16661 16.3753 7.16661C16.1151 7.16661 15.8881 7.23041 15.6942 7.35802C15.5003 7.48562 15.3495 7.67288 15.2418 7.91981C15.1357 8.16673 15.0827 8.46999 15.0827 8.82961C15.0827 9.18922 15.1357 9.49249 15.2418 9.73941C15.3495 9.98633 15.5003 10.1736 15.6942 10.3012C15.8881 10.4288 16.1151 10.4926 16.3753 10.4926C16.6355 10.4926 16.8625 10.4288 17.0564 10.3012C17.2503 10.1736 17.4003 9.98633 17.5063 9.73941C17.614 9.49249 17.6679 9.18922 17.6679 8.82961Z" fill="#33A3AA"/>
</svg>
