<svg width="24" height="21" viewBox="0 0 24 21" fill="none" xmlns="http://www.w3.org/2000/svg">
<path fill-rule="evenodd" clip-rule="evenodd" d="M10.9172 2.82688C10.3908 3.48837 9.80016 4.50423 8.95276 5.96793L4.55202 13.5692C3.70158 15.0381 3.11243 16.0601 2.79978 16.8488C2.48981 17.6307 2.54345 17.9604 2.66793 18.1763C2.79241 18.3922 3.05087 18.6038 3.88288 18.7273C4.72207 18.8519 5.90168 18.8541 7.59905 18.8541H16.4005C18.0979 18.8541 19.2775 18.8519 20.1167 18.7273C20.9487 18.6038 21.2071 18.3922 21.3316 18.1763C21.4561 17.9604 21.5097 17.6307 21.1998 16.8488C20.8871 16.0601 20.298 15.0381 19.4475 13.5692L15.0468 5.96794C14.1994 4.50424 13.6088 3.48838 13.0823 2.82688C12.5606 2.17131 12.2488 2.05347 11.9998 2.05347C11.7508 2.05347 11.439 2.17131 10.9172 2.82688ZM9.64573 1.81499C10.27 1.03061 10.9996 0.428467 11.9998 0.428467C13 0.428467 13.7296 1.03061 14.3538 1.81499C14.9644 2.58221 15.6141 3.70455 16.4177 5.09252L16.4177 5.09255L16.4531 5.15376L20.8538 12.755L20.8893 12.8163C21.6959 14.2094 22.348 15.3357 22.7104 16.2499C23.0808 17.1843 23.2402 18.1194 22.7394 18.988C22.2386 19.8565 21.3495 20.1871 20.3553 20.3347C19.3825 20.4792 18.0811 20.4791 16.4713 20.4791H16.4713H16.4005H7.59905H7.52828H7.52822C5.91844 20.4791 4.61708 20.4792 3.64426 20.3347C2.65004 20.1871 1.76091 19.8565 1.26015 18.988C0.759389 18.1194 0.918746 17.1843 1.28915 16.2499C1.65159 15.3357 2.30365 14.2094 3.11024 12.8163L3.14571 12.755L7.54644 5.15375L7.58186 5.09256L7.58187 5.09254C8.38541 3.70455 9.03516 2.58221 9.64573 1.81499ZM12 6.93743C12.4488 6.93743 12.8125 7.3012 12.8125 7.74993V12.0833C12.8125 12.532 12.4488 12.8958 12 12.8958C11.5513 12.8958 11.1875 12.532 11.1875 12.0833V7.74993C11.1875 7.3012 11.5513 6.93743 12 6.93743ZM12.0005 16.4166C12.5988 16.4166 13.0838 15.9316 13.0838 15.3333C13.0838 14.735 12.5988 14.2499 12.0005 14.2499C11.4022 14.2499 10.9171 14.735 10.9171 15.3333C10.9171 15.9316 11.4022 16.4166 12.0005 16.4166Z" fill="#FF1010"/>
</svg>
