<svg width="24" height="22" viewBox="0 0 24 22" fill="none" xmlns="http://www.w3.org/2000/svg">
<path d="M6.41675 9.83334L6.41675 16.3333" stroke="#33A3AA" stroke-width="1.5" stroke-linecap="round" stroke-linejoin="round"/>
<path d="M10.75 12V16.3333" stroke="#33A3AA" stroke-width="1.5" stroke-linecap="round" stroke-linejoin="round"/>
<path d="M15.0833 7.66666V16.3333" stroke="#33A3AA" stroke-width="1.5" stroke-linecap="round" stroke-linejoin="round"/>
<rect x="1" y="3.33334" width="19.5" height="17.3333" rx="2" stroke="#33A3AA" stroke-width="1.5"/>
<path d="M16.7738 2.025C16.1182 2.68184 15.75 3.57196 15.75 4.5C15.75 5.42804 16.1182 6.31816 16.7738 6.975C17.4588 7.66 18.3538 8 19.2488 8C20.1438 8 21.0388 7.66 21.7238 6.975C23.4638 5.235 23.7488 0 23.7488 0C23.7488 0 18.5138 0.285 16.7738 2.025Z" fill="#EFF2F7"/>
<path d="M17.518 2.51901C17.0262 3.01173 16.75 3.67944 16.75 4.37559C16.75 5.07174 17.0262 5.73944 17.518 6.23216C18.0318 6.746 18.7032 7.00105 19.3746 7.00105C20.0459 7.00105 20.7173 6.746 21.2311 6.23216C22.5364 4.92693 22.7501 1 22.7501 1C22.7501 1 18.8232 1.21379 17.518 2.51901ZM20.7023 5.70332C20.346 6.05588 19.8771 6.25092 19.3746 6.25092C19.0408 6.25092 18.7257 6.15715 18.4444 5.99587C18.7895 4.91568 19.4271 3.96677 20.2747 3.25039C19.2883 3.76048 18.4594 4.54812 17.8856 5.50078C17.3305 4.76566 17.3792 3.71922 18.0506 3.04786C18.7032 2.39524 20.5148 1.99392 21.925 1.82514C21.7562 3.23539 21.3549 5.04696 20.7023 5.70332Z" fill="#33A3AA"/>
</svg>
