<svg width="28" height="17" viewBox="0 0 28 17" fill="none" xmlns="http://www.w3.org/2000/svg">
<path fill-rule="evenodd" clip-rule="evenodd" d="M13.8748 0C10.6042 0 7.79114 1.95248 6.53469 4.75229C6.41422 5.02074 6.329 5.21052 6.26336 5.3486C6.19821 5.48566 6.17111 5.5306 6.1677 5.53627L6.16768 5.53629C6.16736 5.53682 6.16726 5.537 6.16736 5.53685C6.06672 5.67772 6.01503 5.71854 5.98692 5.73673C5.95882 5.75492 5.90042 5.78537 5.7307 5.81951C5.6815 5.82941 5.57671 5.83343 5.125 5.83343C2.29454 5.83343 0 8.12797 0 10.9584C0 13.7889 2.29454 16.0834 5.125 16.0834H16.2139L16.8567 14.5834H5.125C3.12297 14.5834 1.5 12.9605 1.5 10.9584C1.5 8.95639 3.12297 7.33343 5.125 7.33343L5.20397 7.33347C5.53232 7.33374 5.80824 7.33396 6.02652 7.29005C6.29156 7.23674 6.55377 7.15664 6.80203 6.99593C7.0503 6.83523 7.23072 6.6288 7.38788 6.40882C7.47347 6.28902 7.5495 6.13687 7.61807 5.99263C7.69165 5.83785 7.7836 5.63295 7.89918 5.37541L7.89921 5.37534L7.9032 5.36643C8.92661 3.08591 11.2163 1.5 13.8748 1.5C16.5332 1.5 18.8228 3.08577 19.8463 5.36613L19.8504 5.37531C19.966 5.63292 20.058 5.8379 20.1317 5.99273C20.2003 6.13708 20.2764 6.28934 20.3621 6.40922C20.5192 6.62904 20.6996 6.83533 20.9477 6.99595C21.1958 7.15657 21.4579 7.23665 21.7228 7.28998C21.9412 7.33396 22.2174 7.33374 22.546 7.33347L22.625 7.33343C24.627 7.33343 26.25 8.95639 26.25 10.9584C26.25 12.9605 24.627 14.5834 22.625 14.5834H22.5603L23.19 16.0526C25.7546 15.7714 27.75 13.5979 27.75 10.9584C27.75 8.12797 25.4555 5.83343 22.625 5.83343C22.173 5.83343 22.0681 5.8294 22.0189 5.81949C21.8492 5.78533 21.7908 5.7549 21.7628 5.73672C21.7347 5.71855 21.683 5.67777 21.5824 5.53698C21.5825 5.53713 21.5824 5.53695 21.5821 5.5364L21.5821 5.53638C21.5786 5.53065 21.5515 5.48564 21.4863 5.34861C21.4206 5.21045 21.3353 5.02054 21.2148 4.75192C19.9582 1.95231 17.1453 0 13.8748 0Z" fill="#33A3AA"/>
</svg>
