<svg width="20" height="15" viewBox="0 0 20 15" fill="none" xmlns="http://www.w3.org/2000/svg">
<path d="M10 1C11.3805 1 12.7425 1.31757 13.9806 1.92815C15.2187 2.53872 16.2998 3.42593 17.1402 4.52115C17.9806 5.61636 18.5577 6.89022 18.8271 8.24419C19.0964 9.59815 19.0506 10.9959 18.6933 12.3294L16.7615 11.8115M10 1C8.61951 1 7.25752 1.31757 6.0194 1.92815C4.78128 2.53872 3.70021 3.42593 2.85982 4.52115C2.01943 5.61636 1.44225 6.89022 1.17293 8.24419C0.903613 9.59815 0.949371 10.9959 1.30667 12.3294L3.23849 11.8115M10 1V3M3.63574 3.63574L5.04996 5.04996M16.3643 3.63574L14.95 5.04996M10.7659 10.5823C11.2534 11.2916 10.9106 12.3738 10.0003 12.9994C9.08991 13.625 7.95676 13.5571 7.4693 12.8477C6.9498 12.0917 5.1564 7.84088 4.06738 5.21143C3.86228 4.71622 4.46795 4.3 4.85672 4.669C6.92102 6.62825 10.2464 9.82631 10.7659 10.5823Z" stroke="#33A3AA" stroke-width="1.5" stroke-linecap="round"/>
</svg>
