<svg width="23" height="23" viewBox="0 0 23 23" fill="none" xmlns="http://www.w3.org/2000/svg">
<path d="M11.0535 13.4047H9.97754C8.43043 13.4047 7.65688 13.4047 7.36419 12.9018C7.07151 12.3989 7.45365 11.7263 8.21794 10.3811L10.6136 6.1647C10.9931 5.49688 11.1828 5.16297 11.3712 5.21274C11.5595 5.26251 11.5595 5.64655 11.5595 6.41464V9.25593C11.5595 9.49443 11.5595 9.61369 11.6336 9.68778C11.7077 9.76187 11.8269 9.76187 12.0654 9.76187H13.1414C14.6886 9.76187 15.4621 9.76187 15.7548 10.2648C16.0475 10.7677 15.6653 11.4403 14.9011 12.7854L12.5053 17.0019C12.1259 17.6697 11.9362 18.0036 11.7478 17.9538C11.5595 17.9041 11.5595 17.52 11.5595 16.7519V13.9107C11.5595 13.6722 11.5595 13.5529 11.4854 13.4788C11.4113 13.4047 11.2921 13.4047 11.0535 13.4047Z" fill="#33A3AA"/>
<circle cx="11.5" cy="11.5" r="10.5" stroke="#33A3AA" stroke-width="1.5"/>
</svg>
