<svg width="14" height="27" viewBox="0 0 14 27" fill="none" xmlns="http://www.w3.org/2000/svg">
<path d="M6.5625 1.875C5.86631 1.875 5.19863 2.15156 4.70635 2.64384C4.21406 3.13613 3.9375 3.80381 3.9375 4.5V16.3403L3.594 16.6222C2.84569 17.2346 2.30505 18.0633 2.04615 18.9949C1.78726 19.9265 1.82279 20.9154 2.14788 21.826C2.47296 22.7366 3.0717 23.5244 3.86202 24.0815C4.65235 24.6385 5.5956 24.9375 6.5625 24.9375C7.52941 24.9375 8.47266 24.6385 9.26298 24.0815C10.0533 23.5244 10.652 22.7366 10.9771 21.826C11.3022 20.9154 11.3377 19.9265 11.0788 18.9949C10.82 18.0633 10.2793 17.2346 9.531 16.6222L9.1875 16.3403V4.5C9.1875 4.15528 9.1196 3.81394 8.98769 3.49546C8.85577 3.17698 8.66241 2.8876 8.41866 2.64384C8.1749 2.40009 7.88553 2.20673 7.56705 2.07482C7.24857 1.9429 6.90722 1.875 6.5625 1.875ZM2.0625 4.5C2.0625 3.30653 2.53661 2.16193 3.38052 1.31802C4.22443 0.474106 5.36903 0 6.5625 0C7.75598 0 8.90057 0.474106 9.74448 1.31802C10.5884 2.16193 11.0625 3.30653 11.0625 4.5V15.4733C12.0194 16.3747 12.6834 17.5427 12.9687 18.826C13.2539 20.1093 13.1471 21.4487 12.6622 22.6706C12.1773 23.8925 11.3366 24.9406 10.249 25.6791C9.16142 26.4176 7.87711 26.8124 6.5625 26.8124C5.24789 26.8124 3.96359 26.4176 2.876 25.6791C1.78842 24.9406 0.9477 23.8925 0.462781 22.6706C-0.0221372 21.4487 -0.128898 20.1093 0.156333 18.826C0.441564 17.5427 1.10564 16.3747 2.0625 15.4733V4.5ZM9.5625 20.25C9.56246 20.8028 9.40968 21.3448 9.12103 21.8163C8.83238 22.2877 8.41908 22.6702 7.92676 22.9216C7.43443 23.173 6.88222 23.2835 6.33108 23.2408C5.77994 23.1982 5.25129 23.0041 4.8035 22.68C4.3557 22.3558 4.00616 21.9143 3.79346 21.4041C3.58077 20.8938 3.51318 20.3348 3.59817 19.7885C3.68315 19.2423 3.91741 18.7302 4.27507 18.3087C4.63273 17.8872 5.0999 17.5727 5.625 17.4V9.1875C5.625 8.93886 5.72377 8.7004 5.89959 8.52459C6.0754 8.34877 6.31386 8.25 6.5625 8.25C6.81114 8.25 7.0496 8.34877 7.22542 8.52459C7.40123 8.7004 7.5 8.93886 7.5 9.1875V17.4C8.09994 17.5976 8.62225 17.9794 8.99257 18.4912C9.36288 19.0029 9.56233 19.6184 9.5625 20.25Z" fill="#33A3AA"/>
</svg>
