<svg width="26" height="21" viewBox="0 0 26 21" fill="none" xmlns="http://www.w3.org/2000/svg">
<path d="M19.2188 16.6406C19.2188 17.573 18.8484 18.4672 18.189 19.1265C17.5297 19.7859 16.6355 20.1562 15.7031 20.1562C14.1914 20.1562 12.7313 19.1742 12.2309 17.8219C12.1662 17.6469 12.1737 17.4534 12.2517 17.284C12.3298 17.1145 12.4719 16.983 12.6469 16.9184C12.8219 16.8537 13.0153 16.8612 13.1848 16.9392C13.3542 17.0173 13.4857 17.1594 13.5504 17.3344C13.8434 18.1277 14.7891 18.75 15.7031 18.75C16.2626 18.75 16.7991 18.5278 17.1947 18.1322C17.5903 17.7366 17.8125 17.2001 17.8125 16.6406C17.8125 16.0812 17.5903 15.5447 17.1947 15.1491C16.7991 14.7535 16.2626 14.5312 15.7031 14.5312H2.57812C2.39164 14.5312 2.2128 14.4572 2.08094 14.3253C1.94908 14.1934 1.875 14.0146 1.875 13.8281C1.875 13.6416 1.94908 13.4628 2.08094 13.3309C2.2128 13.1991 2.39164 13.125 2.57812 13.125H15.7031C16.6355 13.125 17.5297 13.4954 18.189 14.1547C18.8484 14.814 19.2188 15.7082 19.2188 16.6406ZM15.4688 3.51562C15.4688 2.58322 15.0984 1.68901 14.439 1.0297C13.7797 0.370395 12.8855 0 11.9531 0C10.4414 0 8.98125 0.982031 8.48086 2.33437C8.41621 2.50936 8.42373 2.70285 8.50174 2.87229C8.57976 3.04173 8.72189 3.17324 8.89687 3.23789C9.07186 3.30254 9.26535 3.29502 9.43479 3.21701C9.60423 3.13899 9.73574 2.99686 9.80039 2.82188C10.0934 2.02852 11.0391 1.40625 11.9531 1.40625C12.5126 1.40625 13.0491 1.62849 13.4447 2.02407C13.8403 2.41966 14.0625 2.95618 14.0625 3.51562C14.0625 4.07507 13.8403 4.61159 13.4447 5.00718C13.0491 5.40276 12.5126 5.625 11.9531 5.625H0.703125C0.516645 5.625 0.337802 5.69908 0.20594 5.83094C0.0740789 5.9628 0 6.14164 0 6.32812C0 6.51461 0.0740789 6.69345 0.20594 6.82531C0.337802 6.95717 0.516645 7.03125 0.703125 7.03125H11.9531C12.8855 7.03125 13.7797 6.66085 14.439 6.00155C15.0984 5.34224 15.4688 4.44803 15.4688 3.51562ZM22.2656 3.75C20.7539 3.75 19.2937 4.73203 18.7934 6.08437C18.7613 6.17102 18.7467 6.26311 18.7503 6.35541C18.7539 6.44771 18.7756 6.53839 18.8142 6.62229C18.8529 6.70619 18.9077 6.78166 18.9754 6.84439C19.0432 6.90712 19.1227 6.95588 19.2094 6.98789C19.296 7.0199 19.3881 7.03453 19.4804 7.03095C19.5727 7.02736 19.6634 7.00564 19.7473 6.96701C19.8312 6.92838 19.9067 6.8736 19.9694 6.8058C20.0321 6.73801 20.0809 6.65852 20.1129 6.57188C20.4059 5.77852 21.3516 5.15625 22.2656 5.15625C22.8251 5.15625 23.3616 5.37849 23.7572 5.77407C24.1528 6.16966 24.375 6.70618 24.375 7.26562C24.375 7.82507 24.1528 8.36159 23.7572 8.75718C23.3616 9.15276 22.8251 9.375 22.2656 9.375H1.64062C1.45414 9.375 1.2753 9.44908 1.14344 9.58094C1.01158 9.7128 0.9375 9.89164 0.9375 10.0781C0.9375 10.2646 1.01158 10.4434 1.14344 10.5753C1.2753 10.7072 1.45414 10.7812 1.64062 10.7812H22.2656C23.198 10.7812 24.0922 10.4109 24.7515 9.75155C25.4109 9.09224 25.7812 8.19803 25.7812 7.26562C25.7812 6.33322 25.4109 5.43901 24.7515 4.7797C24.0922 4.1204 23.198 3.75 22.2656 3.75Z" fill="#33A3AA"/>
</svg>
